<?xml version="1.0" encoding="UTF-8"?>
<svg version="1.1" xmlns="http://www.w3.org/2000/svg" width="32" height="32">
<path d="M0 0 C3.07446111 -0.35474551 5.94127109 -0.53698855 9 0 C11.5625 3 11.5625 3 13 6 C13.804375 5.195625 14.60875 4.39125 15.4375 3.5625 C19 0 19 0 21.5625 -0.0625 C22.7690625 -0.0315625 22.7690625 -0.0315625 24 0 C23.57847656 0.53109375 23.15695313 1.0621875 22.72265625 1.609375 C22.17480469 2.31578125 21.62695312 3.0221875 21.0625 3.75 C20.24458984 4.79414063 20.24458984 4.79414063 19.41015625 5.859375 C17.94509529 8.08334565 17.12146391 9.3379159 17 12 C18.4135557 14.60249976 18.4135557 14.60249976 20.4375 17.125 C24 21.82387476 24 21.82387476 24 24 C20.92618093 24.35467143 18.0579345 24.53870349 15 24 C12.5625 21 12.5625 21 11 18 C10.34 18 9.68 18 9 18 C7.2856382 19.95927063 5.61594832 21.95880212 4 24 C2.68 23.67 1.36 23.34 0 23 C0.52851562 22.40832031 1.05703125 21.81664063 1.6015625 21.20703125 C2.26929688 20.41683594 2.93703125 19.62664063 3.625 18.8125 C4.63433594 17.64654297 4.63433594 17.64654297 5.6640625 16.45703125 C7.32072646 14.06560654 7.32072646 14.06560654 6.375 11.4296875 C5.14741253 9.26048464 3.89216919 7.28659441 2.375 5.3125 C0 2.21676301 0 2.21676301 0 0 Z M5 2 C8.68304154 9.17130684 13.1546953 15.56764761 18 22 C18 17.28390301 15.1582353 14.17251729 12.625 10.3125 C12.11710937 9.51521484 11.60921875 8.71792969 11.0859375 7.89648438 C10.59609375 7.14302734 10.10625 6.38957031 9.6015625 5.61328125 C9.15119629 4.92016846 8.70083008 4.22705566 8.23681641 3.51293945 C7.62459229 2.76403442 7.62459229 2.76403442 7 2 C6.34 2 5.68 2 5 2 Z " fill="#FFFFFF" transform="translate(4,4)"/>
</svg>
